<svg width="45" height="45" viewBox="0 0 45 45" fill="none" xmlns="http://www.w3.org/2000/svg">
<circle cx="22.5" cy="22.5" r="22.5" transform="rotate(180 22.5 22.5)" fill="#E1DAD0"/>
<path d="M25.5024 31.5001C25.6601 31.3427 25.7853 31.1557 25.8707 30.9499C25.956 30.744 26 30.5233 26 30.3005C26 30.0776 25.956 29.8569 25.8707 29.6511C25.7853 29.4452 25.6601 29.2583 25.5024 29.1008L18.9001 22.4985L25.5024 15.8962C25.8205 15.578 25.9993 15.1465 25.9993 14.6966C25.9993 14.2466 25.8205 13.8151 25.5024 13.4969C25.1842 13.1787 24.7527 13 24.3027 13C23.8528 13 23.4212 13.1787 23.1031 13.4969L15.2926 21.3074C15.1349 21.4648 15.0097 21.6518 14.9243 21.8576C14.8389 22.0635 14.795 22.2842 14.795 22.507C14.795 22.7299 14.8389 22.9506 14.9243 23.1564C15.0097 23.3623 15.1349 23.5492 15.2926 23.7067L23.1031 31.5171C23.7497 32.1638 24.8387 32.1638 25.5024 31.5001Z" fill="#BC612D"/>
</svg>
