<svg width="403" height="196" viewBox="0 0 403 196" fill="none" xmlns="http://www.w3.org/2000/svg">
<rect x="0.5" y="0.5" width="402" height="195" stroke="#BC612D"/>
<path opacity="0.5" d="M13 13L5 13L5 5L13 5L13 13Z" fill="#E2622B"/>
<mask id="path-3-inside-1_415_2" fill="white">
<path d="M0 0H13V13H0V0Z"/>
</mask>
<path d="M13 13V14H14V13H13ZM12 0V13H14V0H12ZM13 12H0V14H13V12Z" fill="#BC612D" mask="url(#path-3-inside-1_415_2)"/>
<mask id="path-5-inside-2_415_2" fill="white">
<path d="M21 21L4 21L4 4L21 4L21 21Z"/>
</mask>
<path d="M4 4L4 3L3 3L3 4L4 4ZM5 21L5 4L3 4L3 21L5 21ZM4 5L21 5L21 3L4 3L4 5Z" fill="#BC612D" mask="url(#path-5-inside-2_415_2)"/>
<path opacity="0.5" d="M13 183L5 183L5 191L13 191L13 183Z" fill="#E2622B"/>
<mask id="path-8-inside-3_415_2" fill="white">
<path d="M0 196H13V183H0V196Z"/>
</mask>
<path d="M13 183V182H14V183H13ZM12 196V183H14V196H12ZM13 184H0V182H13V184Z" fill="#BC612D" mask="url(#path-8-inside-3_415_2)"/>
<mask id="path-10-inside-4_415_2" fill="white">
<path d="M21 175L4 175L4 192L21 192L21 175Z"/>
</mask>
<path d="M4 192L4 193L3 193L3 192L4 192ZM5 175L5 192L3 192L3 175L5 175ZM4 191L21 191L21 193L4 193L4 191Z" fill="#BC612D" mask="url(#path-10-inside-4_415_2)"/>
<path opacity="0.5" d="M390 13L398 13L398 5L390 5L390 13Z" fill="#E2622B"/>
<mask id="path-13-inside-5_415_2" fill="white">
<path d="M403 0H390V13H403V0Z"/>
</mask>
<path d="M390 13V14H389V13H390ZM391 0V13H389V0H391ZM390 12H403V14H390V12Z" fill="#BC612D" mask="url(#path-13-inside-5_415_2)"/>
<mask id="path-15-inside-6_415_2" fill="white">
<path d="M382 21L399 21L399 4L382 4L382 21Z"/>
</mask>
<path d="M399 4L399 3L400 3L400 4L399 4ZM398 21L398 4L400 4L400 21L398 21ZM399 5L382 5L382 3L399 3L399 5Z" fill="#BC612D" mask="url(#path-15-inside-6_415_2)"/>
<path opacity="0.5" d="M390 183L398 183L398 191L390 191L390 183Z" fill="#E2622B"/>
<mask id="path-18-inside-7_415_2" fill="white">
<path d="M403 196H390V183H403V196Z"/>
</mask>
<path d="M390 183V182H389V183H390ZM391 196V183H389V196H391ZM390 184H403V182H390V184Z" fill="#BC612D" mask="url(#path-18-inside-7_415_2)"/>
<mask id="path-20-inside-8_415_2" fill="white">
<path d="M382 175L399 175L399 192L382 192L382 175Z"/>
</mask>
<path d="M399 192L399 193L400 193L400 192L399 192ZM398 175L398 192L400 192L400 175L398 175ZM399 191L382 191L382 193L399 193L399 191Z" fill="#BC612D" mask="url(#path-20-inside-8_415_2)"/>
</svg>
