<svg width="150" height="70" viewBox="0 0 150 70" fill="none" xmlns="http://www.w3.org/2000/svg">
<path d="M0.921875 60.1699H9.03806V61.3654H5.65003V69.5601H4.25266V61.3654H0.921875V60.1699Z" fill="white"/>
<path d="M10.0088 60.1855H15.5176V61.381H11.401V64.2415H15.3797V65.4419H11.401V68.3552H15.6503V69.5506H10.0114V60.1881L10.0088 60.1855Z" fill="white"/>
<path d="M17.4717 60.1842H18.8638V68.3387H23.2381V69.5592H17.4717V60.1816V60.1842Z" fill="white"/>
<path d="M24.4556 60.1855H29.9644V61.381H25.8477V64.2415H29.8265V65.4419H25.8477V68.3552H30.0971V69.5506H24.4582V60.1881L24.4556 60.1855Z" fill="white"/>
<path d="M38.0734 60.1855H39.4578L35.3489 69.6033H35.0341L30.8472 60.1855H32.2471L35.1694 66.7705L38.0708 60.1855H38.0734Z" fill="white"/>
<path d="M40.5347 60.1855H41.9242V69.5631H40.5347V60.1855Z" fill="white"/>
<path d="M46.8321 65.6332L45.7756 65.0129C45.1121 64.6211 44.6411 64.2369 44.36 63.8602C44.079 63.4835 43.9385 63.0465 43.9385 62.5542C43.9385 61.8159 44.2039 61.2157 44.7347 60.7561C45.2656 60.294 45.9552 60.0654 46.8035 60.0654C47.6518 60.0654 48.3596 60.2864 49.0361 60.7259V62.2504C48.3361 61.5999 47.5815 61.2759 46.7748 61.2759C46.3195 61.2759 45.9474 61.3764 45.6559 61.5798C45.3645 61.7832 45.2187 62.0419 45.2187 62.3583C45.2187 62.6396 45.3254 62.9033 45.5414 63.1469C45.7574 63.393 46.1035 63.6492 46.5797 63.9179L47.6414 64.5257C48.8254 65.2088 49.4187 66.0777 49.4187 67.135C49.4187 67.886 49.1584 68.4987 48.6354 68.9684C48.1124 69.438 47.4358 69.6741 46.6005 69.6741C45.6403 69.6741 44.766 69.3903 43.9775 68.8202V67.115C44.7295 68.0341 45.5987 68.4937 46.5849 68.4937C47.0195 68.4937 47.3838 68.3757 47.6726 68.1421C47.9614 67.9086 48.1072 67.6147 48.1072 67.2631C48.1072 66.693 47.6804 66.1506 46.8269 65.6382L46.8321 65.6332Z" fill="white"/>
<path d="M51.3052 60.1855H52.6947V69.5631H51.3052V60.1855Z" fill="white"/>
<path d="M59.2751 60.0488C60.7765 60.0488 62.0256 60.5084 63.0248 61.4251C64.0241 62.3417 64.5237 63.492 64.5237 64.8758C64.5237 66.2595 64.0189 67.4022 63.0118 68.3089C62.0048 69.2155 60.7323 69.6675 59.1996 69.6675C57.6669 69.6675 56.5168 69.2155 55.541 68.3089C54.5652 67.4022 54.0786 66.2671 54.0786 64.9034C54.0786 63.5397 54.5704 62.3443 55.5514 61.4276C56.535 60.5109 57.7762 60.0513 59.2777 60.0513L59.2751 60.0488ZM59.3297 61.3246C58.2186 61.3246 57.3052 61.6612 56.5896 62.3317C55.8741 63.0022 55.5149 63.8611 55.5149 64.9034C55.5149 65.9456 55.874 66.7568 56.5922 67.4273C57.3104 68.0979 58.2082 68.4344 59.2881 68.4344C60.368 68.4344 61.2762 68.0929 62.0022 67.4073C62.7282 66.7216 63.0899 65.8703 63.0899 64.8506C63.0899 63.831 62.7282 63.0223 62.0022 62.3443C61.2762 61.6662 60.3862 61.3271 59.3297 61.3271V61.3246Z" fill="white"/>
<path d="M73.2698 60.1855H74.5917V69.5631H73.3947L66.8997 62.3428V69.5631H65.5908V60.1855H66.7176L73.2698 67.4686V60.1855Z" fill="white"/>
<path d="M88.347 60.1855H89.6689V69.5631H88.4719L81.9769 62.3428V69.5631H80.668V60.1855H81.7947L88.347 67.4686V60.1855Z" fill="white"/>
<path d="M91.4043 60.1855H96.9131V61.381H92.7965V64.2415H96.7752V65.4419H92.7965V68.3552H97.0458V69.5506H91.4069V60.1881L91.4043 60.1855Z" fill="white"/>
<path d="M97.6997 60.1699H105.816V61.3654H102.428V69.5601H101.03V61.3654H97.6997V60.1699Z" fill="white"/>
<path d="M119.505 60.1855H120.892L116.966 69.6033H116.661L113.484 61.9787L110.276 69.6033H109.976L106.06 60.1855H107.463L110.14 66.6499L112.836 60.1855H114.15L116.859 66.6499L119.508 60.1855H119.505Z" fill="white"/>
<path d="M126.167 60.0488C127.668 60.0488 128.917 60.5084 129.916 61.4251C130.916 62.3417 131.415 63.492 131.415 64.8758C131.415 66.2595 130.91 67.4022 129.903 68.3089C128.896 69.2155 127.626 69.6675 126.091 69.6675C124.556 69.6675 123.408 69.2155 122.433 68.3089C121.457 67.4022 120.97 66.2671 120.97 64.9034C120.97 63.5397 121.462 62.3443 122.443 61.4276C123.427 60.5109 124.668 60.0513 126.169 60.0513L126.167 60.0488ZM126.221 61.3246C125.11 61.3246 124.197 61.6612 123.481 62.3317C122.766 63.0022 122.406 63.8611 122.406 64.9034C122.406 65.9456 122.766 66.7568 123.484 67.4273C124.202 68.0979 125.1 68.4344 126.18 68.4344C127.26 68.4344 128.168 68.0929 128.894 67.4073C129.62 66.7216 129.981 65.8703 129.981 64.8506C129.981 63.831 129.62 63.0223 128.894 62.3443C128.168 61.6662 127.278 61.3271 126.221 61.3271V61.3246Z" fill="white"/>
<path d="M133.167 69.5592V60.1816H135.6C136.583 60.1816 137.364 60.4177 137.939 60.8873C138.517 61.357 138.806 61.9924 138.806 62.7935C138.806 63.3385 138.665 63.8106 138.381 64.2099C138.098 64.6093 137.692 64.9056 137.164 65.1015C137.473 65.2974 137.778 65.5661 138.074 65.9077C138.371 66.2467 138.787 66.8394 139.326 67.6857C139.664 68.2181 139.935 68.6175 140.14 68.8862L140.656 69.5567H139.001L138.577 68.9389C138.564 68.9163 138.535 68.8786 138.493 68.8234L138.223 68.4542L137.791 67.7686L137.325 67.0378C137.039 66.6535 136.776 66.3471 136.536 66.1186C136.297 65.8901 136.081 65.7268 135.889 65.6264C135.696 65.5259 135.371 65.4757 134.918 65.4757H134.556V69.5567H133.164L133.167 69.5592ZM134.975 61.3243H134.559V64.2853H135.087C135.792 64.2853 136.276 64.2275 136.536 64.112C136.799 63.9965 137.002 63.8207 137.148 63.5846C137.294 63.3485 137.367 63.0823 137.367 62.7835C137.367 62.4846 137.286 62.2209 137.122 61.9823C136.961 61.7437 136.732 61.5755 136.438 61.475C136.144 61.3771 135.654 61.3268 134.975 61.3268V61.3243Z" fill="white"/>
<path d="M147.224 60.1855H148.962L144.75 64.6358L150.001 69.5631H148.101L143.136 64.9321V69.5631H141.747V60.1855H143.136V64.475L147.227 60.1855H147.224Z" fill="white"/>
<path d="M32.7928 53.5385V55.0152C31.7728 55.5527 30.594 55.8214 29.2591 55.8214C28.174 55.8214 27.2528 55.6104 26.4982 55.191C25.7435 54.7716 25.145 54.1915 24.7053 53.4531C24.2655 52.7148 24.0443 51.9162 24.0443 51.0573C24.0443 49.6936 24.5491 48.5459 25.5562 47.6141C26.5632 46.6824 27.8071 46.2178 29.2877 46.2178C30.3077 46.2178 31.4423 46.4765 32.6887 46.9888V48.4328C31.5516 47.805 30.4431 47.4936 29.358 47.4936C28.2728 47.4936 27.3204 47.8326 26.5866 48.5107C25.8528 49.1888 25.4833 50.0376 25.4833 51.0573C25.4833 52.0769 25.845 52.9333 26.5684 53.5938C27.2918 54.2568 28.2156 54.5883 29.3423 54.5883C30.4691 54.5883 31.6687 54.2392 32.7928 53.541V53.5385Z" fill="white"/>
<path d="M41.3548 46.3359H42.747V55.7135H41.3548V51.6325H35.8955V55.7135H34.5033V46.3359H35.8955V50.3894H41.3548V46.3359Z" fill="white"/>
<path d="M45.244 46.3359H46.6336V55.7135H45.244V46.3359Z" fill="white"/>
<path d="M56.853 46.3359H58.175V55.7135H56.978L50.4829 48.4932V55.7135H49.1766V46.3359H50.3034L56.8557 53.619V46.3359H56.853Z" fill="white"/>
<path d="M63.3563 46.2832H64.3347L68.6907 55.7135H67.2673L65.9714 52.9359H61.8262L60.611 55.7135H59.1824L63.3563 46.2832ZM65.399 51.7405L63.8325 48.3451L62.3778 51.7405H65.399Z" fill="white"/>
<path d="M84.5975 46.3365H85.9897V54.491H90.364V55.7116H84.5975V46.334V46.3365Z" fill="white"/>
<path d="M95.6612 46.2031C97.1627 46.2031 98.4117 46.6627 99.4109 47.5794C100.41 48.496 100.91 49.6463 100.91 51.0301C100.91 52.4138 100.405 53.5565 99.3979 54.4631C98.3909 55.3698 97.1184 55.8218 95.5857 55.8218C94.0531 55.8218 92.9003 55.3698 91.9271 54.4631C90.9513 53.5565 90.4647 52.4214 90.4647 51.0577C90.4647 49.694 90.9565 48.4986 91.9375 47.5819C92.9211 46.6652 94.1624 46.2056 95.6638 46.2056L95.6612 46.2031ZM95.7158 47.4789C94.6047 47.4789 93.6914 47.8154 92.9758 48.486C92.2602 49.1565 91.9011 50.0154 91.9011 51.0577C91.9011 52.0999 92.2602 52.9111 92.9784 53.5816C93.6966 54.2522 94.5943 54.5887 95.6742 54.5887C96.7541 54.5887 97.6623 54.2472 98.3883 53.5616C99.1143 52.8759 99.476 52.0246 99.476 51.0049C99.476 49.9853 99.1143 49.1766 98.3883 48.4986C97.6623 47.8205 96.7723 47.4814 95.7158 47.4814V47.4789Z" fill="white"/>
<path d="M105.909 55.7135H102.62V46.3359H105.165C105.966 46.3359 106.594 46.4389 107.044 46.6474C107.494 46.8558 107.837 47.1421 108.074 47.5063C108.311 47.8704 108.428 48.2923 108.428 48.772C108.428 49.6937 107.934 50.3542 106.947 50.751C107.658 50.8816 108.22 51.1629 108.641 51.5973C109.06 52.0318 109.271 52.5517 109.271 53.1544C109.271 53.6341 109.144 54.061 108.889 54.4377C108.634 54.8145 108.259 55.1208 107.764 55.3569C107.27 55.593 106.653 55.7135 105.912 55.7135H105.909ZM105.207 47.5314H104.01V50.3517H104.933C105.675 50.3517 106.203 50.2161 106.515 49.9423C106.828 49.6686 106.984 49.317 106.984 48.8825C106.984 47.9834 106.391 47.5339 105.204 47.5339L105.207 47.5314ZM105.311 51.5446H104.01V54.5181H105.378C106.138 54.5181 106.653 54.4603 106.927 54.3473C107.197 54.2318 107.416 54.056 107.58 53.8124C107.744 53.5713 107.827 53.3101 107.827 53.0339C107.827 52.7576 107.741 52.4864 107.567 52.2478C107.392 52.0117 107.145 51.8334 106.825 51.7179C106.505 51.6024 106 51.5421 105.308 51.5421L105.311 51.5446Z" fill="white"/>
<path d="M114.368 46.2832H115.347L119.703 55.7135H118.279L116.983 52.9359H112.838L111.623 55.7135H110.194L114.368 46.2832ZM116.411 51.7405L114.844 48.3451L113.39 51.7405H116.411Z" fill="white"/>
<path d="M121.108 46.3365H122.5V54.491H126.875V55.7116H121.108V46.334V46.3365Z" fill="white"/>
<path d="M80.8325 51.096V54.2428L80.6998 54.283C79.9244 54.5291 79.2608 54.6522 78.704 54.6522C77.559 54.6522 76.6222 54.3132 75.8936 53.6376C75.165 52.962 74.8007 52.0906 74.8007 51.0257C74.8007 49.9609 75.165 49.1522 75.8936 48.454C76.6222 47.7559 77.5174 47.4068 78.579 47.4068C79.7188 47.4068 80.869 47.7308 82.0295 48.3812V47.0125C81.2775 46.7086 80.6582 46.5002 80.1664 46.3846C79.6746 46.2716 79.1567 46.2139 78.6077 46.2139C77.1062 46.2139 75.8572 46.6785 74.8579 47.6102C73.8613 48.5419 73.3617 49.7072 73.3617 51.1061C73.3617 52.5049 73.8431 53.5522 74.8059 54.4588C75.7687 55.3654 77.0542 55.8175 78.6623 55.8175C79.8385 55.8175 81.0277 55.5664 82.2221 55.0666V51.0935H80.8299L80.8325 51.096Z" fill="white"/>
<path d="M141.158 0.464844V23.7782L120.983 0.90434C120.736 0.625574 120.377 0.464844 119.997 0.464844H113.021V38.0807H121.837V14.3806L142.147 37.6437C142.389 37.92 142.745 38.0807 143.122 38.0807H149.997V0.464844H141.158Z" fill="#BFAE62"/>
<path d="M27.2708 29.8933C25.5585 30.4232 23.7292 30.6919 21.84 30.6919C19.3966 30.6919 17.1743 30.2047 15.2357 29.2453C13.3283 28.3011 11.8295 26.9474 10.7808 25.2196C9.72953 23.4842 9.19608 21.4876 9.19608 19.2826C9.19608 17.0776 9.73473 15.1488 10.7938 13.3959C11.8503 11.6504 13.3544 10.2792 15.267 9.31733C17.2056 8.3429 19.4174 7.84815 21.84 7.84815C23.8047 7.84815 25.7147 8.11938 27.518 8.6518C28.6916 8.99838 29.8912 9.47303 31.2157 10.1059C31.3015 10.1461 31.2755 10.1335 31.3614 10.1762L34.9732 3.40045L34.4346 3.13926C32.0848 2.0041 29.8573 1.1879 27.8198 0.715751C25.7745 0.238584 23.6564 0 21.5252 0C17.4814 0 13.7889 0.816208 10.5466 2.43104C7.28088 4.05592 4.67611 6.40158 2.81035 9.40522C0.947191 12.4089 0 15.8369 0 19.594C0 23.11 0.918567 26.3949 2.73228 29.3508C4.546 32.3143 7.07531 34.6147 10.25 36.1919C13.396 37.7515 17.0052 38.5426 20.9787 38.5426C23.6928 38.5426 26.1076 38.2739 28.1581 37.744C30.1982 37.2191 32.4569 36.325 34.8743 35.0844L35.3037 34.8634L32.6026 27.6205C30.5105 28.6753 28.7098 29.4488 27.2682 29.8958L27.2708 29.8933Z" fill="#BFAE62"/>
<path d="M72.5667 18.9796L66.652 18.9846V18.977H64.5702V20.3658V29.3014C63.2067 29.9393 61.942 30.2784 61.138 30.4291C60.1882 30.6049 59.1733 30.6928 58.1246 30.6928C54.3411 30.6928 51.2679 29.653 48.9884 27.6037C46.6985 25.5469 45.5848 22.8923 45.5848 19.4894C45.5848 17.2643 46.1156 15.2225 47.1669 13.4243C48.2051 11.6437 49.6884 10.2574 51.5776 9.30812C53.5006 8.34122 55.7384 7.8515 58.2287 7.8515C61.6063 7.8515 65.0776 8.59237 68.575 10.0364L72.1712 3.25813L71.6585 3.0296C67.1386 1.02298 62.5145 0.00585938 57.9165 0.00585938C53.9065 0.00585938 50.214 0.832113 46.9379 2.45951C43.6357 4.10197 41.0257 6.44009 39.1756 9.40857C37.3281 12.3771 36.3887 15.7348 36.3887 19.3889C36.3887 23.043 37.3176 26.3104 39.1496 29.2412C40.9815 32.177 43.5655 34.4875 46.8312 36.1124C50.0709 37.7247 53.7296 38.5409 57.7057 38.5409C60.4926 38.5409 63.2145 38.1793 65.7984 37.4711C68.4006 36.7553 70.6697 35.7432 72.5407 34.4574L72.9518 34.1761V19.3538C72.9518 19.1478 72.7801 18.9796 72.5667 18.9796Z" fill="#BFAE62"/>
<path d="M106.385 0.464844H74.9609V7.75044H87.6465V38.0807H96.7567V7.75044H109.18V2.86826V0.841555V0.464844H108.792H106.385Z" fill="#BFAE62"/>
</svg>
