<?xml version="1.0" encoding="utf-8"?>
<!-- Generator: Adobe Illustrator 27.7.0, SVG Export Plug-In . SVG Version: 6.00 Build 0) -->
<svg version="1.1" id="Layer_1" xmlns="http://www.w3.org/2000/svg" xmlns:xlink="http://www.w3.org/1999/xlink" x="0px" y="0px" viewBox="0 0 46.1 46.1" style="enable-background:new 0 0 46.1 46.1;" xml:space="preserve">
	<style type="text/css">
		.st0{fill:#BC612D;}
		.st1{fill:#fff;}
	</style>
	<circle class="st0" cx="23.1" cy="23.1" r="23.1" />
	<path class="st1" d="M21.8,9.3l-5-0.4c-0.4,0-0.7,0.3-0.8,0.7c0,0.1,0,0.2,0.1,0.3l0.7,1.4c-6.6,3.4-9.1,11.6-5.6,18.1
	c1.7,3.2,4.5,5.6,8,6.6c0.6,0.2,1.2-0.2,1.4-0.8c0-0.1,0-0.2,0-0.3c0-0.5-0.3-0.9-0.8-1c-5.9-1.8-9.3-8.1-7.5-14
	c0.9-2.9,2.8-5.3,5.5-6.7l0.7,1.4c0.2,0.4,0.6,0.5,1,0.3c0.1-0.1,0.2-0.1,0.3-0.2l2.6-4.3c0.2-0.4,0.1-0.8-0.2-1
	C22,9.3,21.9,9.3,21.8,9.3z" />
	<path class="st1" d="M36.5,23.1c0-5.9-3.8-11.1-9.5-12.8c-0.6-0.2-1.2,0.2-1.4,0.8c0,0.1,0,0.2,0,0.3c0,0.5,0.3,0.9,0.8,1
	c5.9,1.8,9.3,8.1,7.5,14C33,29.2,31,31.6,28.3,33l-0.7-1.4c-0.2-0.4-0.6-0.5-1-0.3c-0.1,0.1-0.2,0.1-0.3,0.2l-2.6,4.3
	c-0.2,0.3-0.1,0.8,0.3,1c0.1,0,0.2,0.1,0.3,0.1l5,0.5c0.4,0,0.7-0.2,0.8-0.6c0-0.1,0-0.2-0.1-0.4L29.3,35
	C33.7,32.7,36.5,28.1,36.5,23.1z" />
</svg>
