<svg width="98" height="45" viewBox="0 0 98 45" fill="none" xmlns="http://www.w3.org/2000/svg">
<path d="M0.595703 38.072H5.84427V38.8284H3.6533V44.0136H2.74965V38.8284H0.595703V38.072Z" fill="#283F81"/>
<path d="M6.47217 38.0818H10.0346V38.8382H7.37245V40.6482H9.94541V41.4078H7.37245V43.2511H10.1204V44.0075H6.47385V38.0834L6.47217 38.0818Z" fill="#283F81"/>
<path d="M11.2983 38.0817H12.1986V43.2415H15.0274V44.0138H11.2983V38.0801V38.0817Z" fill="#283F81"/>
<path d="M15.8145 38.0818H19.3769V38.8382H16.7147V40.6482H19.2877V41.4078H16.7147V43.2511H19.4627V44.0075H15.8161V38.0834L15.8145 38.0818Z" fill="#283F81"/>
<path d="M24.6208 38.0818H25.516L22.8589 44.0409H22.6553L19.9478 38.0818H20.8531L22.7428 42.2484L24.6191 38.0818H24.6208Z" fill="#283F81"/>
<path d="M26.2124 38.0818H27.111V44.0155H26.2124V38.0818Z" fill="#283F81"/>
<path d="M30.2848 41.5288L29.6016 41.1362C29.1725 40.8884 28.8679 40.6452 28.6862 40.4069C28.5044 40.1685 28.4136 39.892 28.4136 39.5805C28.4136 39.1133 28.5852 38.7335 28.9285 38.4427C29.2718 38.1503 29.7177 38.0057 30.2663 38.0057C30.8149 38.0057 31.2726 38.1456 31.7101 38.4237V39.3882C31.2575 38.9767 30.7695 38.7717 30.2478 38.7717C29.9533 38.7717 29.7127 38.8352 29.5242 38.964C29.3357 39.0927 29.2415 39.2564 29.2415 39.4566C29.2415 39.6346 29.3105 39.8014 29.4502 39.9556C29.5898 40.1113 29.8136 40.2734 30.1216 40.4434L30.8082 40.828C31.5738 41.2602 31.9575 41.81 31.9575 42.479C31.9575 42.9542 31.7892 43.3419 31.451 43.6391C31.1127 43.9362 30.6752 44.0856 30.135 44.0856C29.5141 44.0856 28.9487 43.906 28.4388 43.5453V42.4663C28.9251 43.0479 29.4872 43.3387 30.125 43.3387C30.406 43.3387 30.6416 43.264 30.8283 43.1163C31.0151 42.9685 31.1094 42.7825 31.1094 42.5601C31.1094 42.1994 30.8334 41.8561 30.2814 41.5319L30.2848 41.5288Z" fill="#283F81"/>
<path d="M33.1777 38.0818H34.0763V44.0155H33.1777V38.0818Z" fill="#283F81"/>
<path d="M38.3319 37.9956C39.3028 37.9956 40.1105 38.2864 40.7567 38.8664C41.4029 39.4464 41.726 40.1742 41.726 41.0498C41.726 41.9254 41.3995 42.6485 40.7483 43.2221C40.0971 43.7958 39.2742 44.0818 38.2831 44.0818C37.2919 44.0818 36.5481 43.7958 35.9171 43.2221C35.286 42.6485 34.9714 41.9302 34.9714 41.0673C34.9714 40.2044 35.2894 39.448 35.9238 38.868C36.5599 38.288 37.3626 37.9972 38.3335 37.9972L38.3319 37.9956ZM38.3672 38.8029C37.6486 38.8029 37.058 39.0158 36.5952 39.4401C36.1325 39.8644 35.9002 40.4078 35.9002 41.0673C35.9002 41.7268 36.1325 42.2401 36.5969 42.6644C37.0614 43.0886 37.6419 43.3016 38.3403 43.3016C39.0386 43.3016 39.6259 43.0855 40.0954 42.6516C40.5649 42.2178 40.7988 41.6791 40.7988 41.034C40.7988 40.3888 40.5649 39.8771 40.0954 39.448C39.6259 39.019 39.0504 38.8045 38.3672 38.8045V38.8029Z" fill="#283F81"/>
<path d="M47.3819 38.0818H48.2367V44.0155H47.4626L43.2624 39.4468V44.0155H42.416V38.0818H43.1447L47.3819 42.6902V38.0818Z" fill="#283F81"/>
<path d="M57.1319 38.0818H57.9867V44.0155H57.2126L53.0124 39.4468V44.0155H52.166V38.0818H52.8947L57.1319 42.6902V38.0818Z" fill="#283F81"/>
<path d="M59.1089 38.0818H62.6713V38.8382H60.0092V40.6482H62.5821V41.4078H60.0092V43.2511H62.7571V44.0075H59.1106V38.0834L59.1089 38.0818Z" fill="#283F81"/>
<path d="M63.1797 38.072H68.4283V38.8284H66.2373V44.0136H65.3336V38.8284H63.1797V38.072Z" fill="#283F81"/>
<path d="M77.2813 38.0818H78.1782L75.6389 44.0409H75.442L73.3874 39.2164L71.3125 44.0409H71.119L68.5864 38.0818H69.4934L71.225 42.1721L72.9684 38.0818H73.8182L75.5699 42.1721L77.283 38.0818H77.2813Z" fill="#283F81"/>
<path d="M81.5892 37.9956C82.5601 37.9956 83.3679 38.2864 84.0141 38.8664C84.6602 39.4464 84.9833 40.1742 84.9833 41.0498C84.9833 41.9254 84.6569 42.6485 84.0056 43.2221C83.3544 43.7958 82.5332 44.0818 81.5404 44.0818C80.5475 44.0818 79.8054 43.7958 79.1744 43.2221C78.5434 42.6485 78.2287 41.9302 78.2287 41.0673C78.2287 40.2044 78.5467 39.448 79.1811 38.868C79.8172 38.288 80.6199 37.9972 81.5909 37.9972L81.5892 37.9956ZM81.6245 38.8029C80.906 38.8029 80.3153 39.0158 79.8526 39.4401C79.3898 39.8644 79.1576 40.4078 79.1576 41.0673C79.1576 41.7268 79.3898 42.2401 79.8542 42.6644C80.3187 43.0886 80.8992 43.3016 81.5976 43.3016C82.2959 43.3016 82.8832 43.0855 83.3527 42.6516C83.8222 42.2178 84.0561 41.6791 84.0561 41.034C84.0561 40.3888 83.8222 39.8771 83.3527 39.448C82.8832 39.019 82.3077 38.8045 81.6245 38.8045V38.8029Z" fill="#283F81"/>
<path d="M86.1159 44.0138V38.0801H87.6893C88.3254 38.0801 88.8303 38.2295 89.2021 38.5266C89.5757 38.8238 89.7625 39.2258 89.7625 39.7327C89.7625 40.0776 89.6716 40.3763 89.4882 40.629C89.3048 40.8816 89.0423 41.0692 88.7007 41.1931C88.9009 41.3171 89.0978 41.4871 89.2896 41.7032C89.4815 41.9177 89.7507 42.2928 90.0991 42.8283C90.3178 43.1652 90.4928 43.4178 90.6258 43.5879L90.959 44.0122H89.8887L89.6144 43.6212C89.606 43.6069 89.5875 43.5831 89.5606 43.5481L89.3856 43.3145L89.1062 42.8807L88.805 42.4183C88.6199 42.1752 88.4499 41.9813 88.2951 41.8367C88.1403 41.6921 88.0006 41.5888 87.8761 41.5252C87.7516 41.4617 87.5412 41.4299 87.2484 41.4299H87.0145V44.0122H86.1143L86.1159 44.0138ZM87.2855 38.8031H87.0162V40.6767H87.3578C87.8139 40.6767 88.1269 40.6401 88.2951 40.567C88.4651 40.4939 88.5963 40.3827 88.6906 40.2333C88.7848 40.0839 88.8319 39.9155 88.8319 39.7264C88.8319 39.5373 88.7798 39.3704 88.6738 39.2195C88.5694 39.0685 88.4213 38.962 88.2312 38.8985C88.041 38.8365 87.7247 38.8047 87.2855 38.8047V38.8031Z" fill="#283F81"/>
<path d="M95.2063 38.0818H96.3304L93.606 40.8977L97.0018 44.0155H95.7734L92.5627 41.0852V44.0155H91.6641V38.0818H92.5627V40.796L95.208 38.0818H95.2063Z" fill="#283F81"/>
<path d="M21.2063 33.877V34.8113C20.5466 35.1514 19.7843 35.3214 18.9211 35.3214C18.2194 35.3214 17.6237 35.188 17.1357 34.9226C16.6477 34.6572 16.2606 34.2901 15.9762 33.8229C15.6918 33.3557 15.5488 32.8504 15.5488 32.3069C15.5488 31.4441 15.8753 30.7178 16.5265 30.1283C17.1777 29.5387 17.9821 29.2448 18.9396 29.2448C19.5992 29.2448 20.3329 29.4084 21.139 29.7326V30.6463C20.4036 30.2491 19.6867 30.052 18.985 30.052C18.2833 30.052 17.6674 30.2665 17.1929 30.6956C16.7183 31.1246 16.4794 31.6618 16.4794 32.3069C16.4794 32.9521 16.7133 33.494 17.1811 33.9119C17.6489 34.3314 18.2463 34.5412 18.9749 34.5412C19.7036 34.5412 20.4793 34.3203 21.2063 33.8785V33.877Z" fill="#283F81"/>
<path d="M26.7427 29.3192H27.643V35.2529H26.7427V32.6706H23.2123V35.2529H22.312V29.3192H23.2123V31.884H26.7427V29.3192Z" fill="#283F81"/>
<path d="M29.2583 29.3192H30.1569V35.2529H29.2583V29.3192Z" fill="#283F81"/>
<path d="M36.7654 29.3192H37.6203V35.2529H36.8462L32.646 30.6842V35.2529H31.8013V29.3192H32.5299L36.7671 33.9276V29.3192H36.7654Z" fill="#283F81"/>
<path d="M40.9706 29.286H41.6034L44.4203 35.2531H43.4998L42.6618 33.4955H39.9812L39.1953 35.2531H38.2715L40.9706 29.286ZM42.2916 32.7391L41.2786 30.5907L40.3379 32.7391H42.2916Z" fill="#283F81"/>
<path d="M54.707 29.3191H55.6073V34.4789H58.436V35.2512H54.707V29.3175V29.3191Z" fill="#283F81"/>
<path d="M61.8621 29.2349C62.833 29.2349 63.6407 29.5257 64.2869 30.1057C64.9331 30.6857 65.2562 31.4135 65.2562 32.2891C65.2562 33.1647 64.9297 33.8877 64.2785 34.4614C63.6273 35.0351 62.8044 35.3211 61.8132 35.3211C60.8221 35.3211 60.0766 35.0351 59.4473 34.4614C58.8162 33.8877 58.5016 33.1695 58.5016 32.3066C58.5016 31.4437 58.8196 30.6873 59.454 30.1073C60.0901 29.5273 60.8928 29.2365 61.8637 29.2365L61.8621 29.2349ZM61.8974 30.0421C61.1788 30.0421 60.5882 30.2551 60.1254 30.6793C59.6627 31.1036 59.4304 31.6471 59.4304 32.3066C59.4304 32.9661 59.6627 33.4793 60.1271 33.9036C60.5916 34.3279 61.1721 34.5408 61.8705 34.5408C62.5688 34.5408 63.1561 34.3247 63.6256 33.8909C64.0951 33.4571 64.329 32.9184 64.329 32.2732C64.329 31.628 64.0951 31.1163 63.6256 30.6873C63.1561 30.2582 62.5806 30.0437 61.8974 30.0437V30.0421Z" fill="#283F81"/>
<path d="M68.4888 35.2529H66.3618V29.3192H68.0076C68.5259 29.3192 68.9314 29.3844 69.2225 29.5163C69.5136 29.6482 69.7358 29.8293 69.8889 30.0597C70.042 30.2902 70.1177 30.5571 70.1177 30.8606C70.1177 31.4438 69.798 31.8618 69.1603 32.1128C69.6196 32.1955 69.9831 32.3734 70.2557 32.6484C70.5267 32.9233 70.663 33.2522 70.663 33.6336C70.663 33.9371 70.5805 34.2073 70.4156 34.4456C70.2507 34.684 70.0084 34.8779 69.6886 35.0272C69.3689 35.1766 68.9701 35.2529 68.4905 35.2529H68.4888ZM68.0345 30.0756H67.2604V31.8602H67.8578C68.3374 31.8602 68.679 31.7744 68.8809 31.6012C69.0828 31.4279 69.1838 31.2055 69.1838 30.9306C69.1838 30.3617 68.8001 30.0772 68.0328 30.0772L68.0345 30.0756ZM68.1018 32.615H67.2604V34.4965H68.1455C68.6369 34.4965 68.9701 34.4599 69.1468 34.3884C69.3218 34.3153 69.4632 34.2041 69.5692 34.0499C69.6752 33.8974 69.729 33.7321 69.729 33.5573C69.729 33.3825 69.6735 33.2109 69.5608 33.0599C69.448 32.9106 69.2881 32.7977 69.0812 32.7246C68.8742 32.6515 68.5477 32.6134 68.1001 32.6134L68.1018 32.615Z" fill="#283F81"/>
<path d="M73.9594 29.286H74.5921L77.4091 35.2531H76.4886L75.6506 33.4955H72.9699L72.1841 35.2531H71.2602L73.9594 29.286ZM75.2804 32.7391L74.2674 30.5907L73.3267 32.7391H75.2804Z" fill="#283F81"/>
<path d="M78.3179 29.3191H79.2181V34.4789H82.0469V35.2512H78.3179V29.3175V29.3191Z" fill="#283F81"/>
<path d="M52.2721 32.3306V34.3218L52.1863 34.3472C51.6848 34.5029 51.2557 34.5808 50.8956 34.5808C50.1552 34.5808 49.5494 34.3663 49.0782 33.9388C48.6071 33.5113 48.3715 32.9599 48.3715 32.2862C48.3715 31.6124 48.6071 31.1007 49.0782 30.6589C49.5494 30.2172 50.1283 29.9963 50.8149 29.9963C51.5519 29.9963 52.2957 30.2013 53.0462 30.6128V29.7468C52.5599 29.5545 52.1594 29.4226 51.8413 29.3495C51.5233 29.278 51.1884 29.2415 50.8334 29.2415C49.8624 29.2415 49.0547 29.5354 48.4085 30.125C47.764 30.7145 47.4409 31.4519 47.4409 32.337C47.4409 33.2221 47.7522 33.8848 48.3748 34.4584C48.9975 35.0321 49.8288 35.3181 50.8687 35.3181C51.6293 35.3181 52.3983 35.1592 53.1707 34.843V32.3291H52.2705L52.2721 32.3306Z" fill="#283F81"/>
<path d="M91.2837 0.294189V15.0457L78.2372 0.572281C78.0773 0.395891 77.8451 0.294189 77.5994 0.294189H73.0879V24.0956H78.7891V9.09935L91.9232 23.8191C92.0797 23.9939 92.3102 24.0956 92.5542 24.0956H97.0001V0.294189H91.2837Z" fill="#BFAE62"/>
<path d="M17.6354 18.915C16.5282 19.2503 15.3452 19.4203 14.1235 19.4203C12.5434 19.4203 11.1063 19.112 9.85263 18.505C8.61915 17.9075 7.64988 17.051 6.97172 15.9577C6.29188 14.8596 5.94691 13.5963 5.94691 12.2011C5.94691 10.8058 6.29525 9.58541 6.98014 8.47622C7.66334 7.3718 8.63598 6.50416 9.87282 5.89553C11.1265 5.27897 12.5568 4.96591 14.1235 4.96591C15.394 4.96591 16.6291 5.13754 17.7953 5.47442C18.5542 5.69372 19.33 5.99406 20.1865 6.39451C20.2421 6.41993 20.2252 6.41199 20.2808 6.439L22.6164 2.15163L22.2681 1.98637C20.7486 1.2681 19.3081 0.751641 17.9905 0.452891C16.6679 0.150964 15.2981 0 13.9199 0C11.3049 0 8.91701 0.516455 6.82027 1.53824C4.70839 2.56638 3.02394 4.0506 1.81739 5.95115C0.612529 7.85171 0 10.0208 0 12.3981C0 14.6228 0.594018 16.7014 1.76691 18.5717C2.9398 20.4469 4.57546 21.9025 6.62844 22.9004C8.66291 23.8872 10.9969 24.3878 13.5665 24.3878C15.3216 24.3878 16.8832 24.2178 18.2093 23.8825C19.5286 23.5504 20.9892 22.9846 22.5525 22.1996L22.8302 22.0598L21.0834 17.4768C19.7305 18.1443 18.566 18.6337 17.6338 18.9166L17.6354 18.915Z" fill="#BFAE62"/>
<path d="M46.9273 12.0093L43.1024 12.0124V12.0077H41.7562V12.8864V18.5404C40.8744 18.9441 40.0566 19.1586 39.5366 19.2539C38.9224 19.3652 38.2661 19.4208 37.5879 19.4208C35.1412 19.4208 33.1538 18.7629 31.6797 17.4662C30.1989 16.1647 29.4787 14.4851 29.4787 12.3318C29.4787 10.9239 29.8219 9.63197 30.5018 8.49418C31.1732 7.36752 32.1324 6.49034 33.3541 5.88966C34.5976 5.27786 36.0448 4.96799 37.6552 4.96799C39.8395 4.96799 42.0843 5.43677 44.3459 6.3505L46.6715 2.06154L46.34 1.91693C43.4171 0.647245 40.4268 0.00366211 37.4533 0.00366211C34.8602 0.00366211 32.4723 0.526474 30.3537 1.55621C28.2183 2.59547 26.5304 4.07492 25.334 5.95322C24.1392 7.83153 23.5317 9.95615 23.5317 12.2683C23.5317 14.5804 24.1325 16.6478 25.3172 18.5023C26.5018 20.3599 28.1728 21.8219 30.2847 22.85C32.3798 23.8702 34.7457 24.3867 37.317 24.3867C39.1193 24.3867 40.8794 24.1579 42.5504 23.7097C44.2332 23.2569 45.7006 22.6164 46.9105 21.8028L47.1764 21.6249V12.246C47.1764 12.1157 47.0653 12.0093 46.9273 12.0093Z" fill="#BFAE62"/>
<path d="M68.7967 0.294189H48.4756V4.90415H56.6791V24.0956H62.5705V4.90415H70.604V1.81495V0.532553V0.294189H70.3533H68.7967Z" fill="#BFAE62"/>
</svg>
